HIERARCHY
ROOT ZeroOut_JNT
{
  OFFSET 0 0 0
  CHANNELS 6 Xposition Yposition Zposition Zrotation Xrotation Yrotation
  JOINT SpineFinal_1_JNT
  {
    OFFSET 0 59.8141 -42.9993
    CHANNELS 6 Xposition Yposition Zposition Zrotation Xrotation Yrotation
    JOINT l_legIKClavicle_Root_JNT
    {
      OFFSET -0.323145 -1.55994 9.59625
      CHANNELS 6 Xposition Yposition Zposition Zrotation Xrotation Yrotation
      JOINT l_legBlendRoot_JNT
      {
        OFFSET 16.1374 0 0
        CHANNELS 6 Xposition Yposition Zposition Zrotation Xrotation Yrotation
        JOINT l_legBlendMiddle_JNT
        {
          OFFSET 27.0969 0 0
          CHANNELS 6 Xposition Yposition Zposition Zrotation Xrotation Yrotation
          JOINT l_legBlendEnd_JNT
          {
            OFFSET 24.8414 0 0
            CHANNELS 6 Xposition Yposition Zposition Zrotation Xrotation Yrotation
            JOINT l_legBlendTip_JNT
            {
              OFFSET 6.77858 0 0
              CHANNELS 6 Xposition Yposition Zposition Zrotation Xrotation Yrotation
              End Site
              {
                OFFSET 0 0 0
              }
            }
          }
        }
      }
    }
    JOINT SpineFinal_2_JNT
    {
      OFFSET -19.5366 0.0587492 -0.00256357
      CHANNELS 6 Xposition Yposition Zposition Zrotation Xrotation Yrotation
      JOINT SpineFinal_3_JNT
      {
        OFFSET -19.4679 1.47333 -0.00136182
        CHANNELS 6 Xposition Yposition Zposition Zrotation Xrotation Yrotation
        JOINT SpineFinal_4_JNT
        {
          OFFSET -18.2335 5.20609 0
          CHANNELS 6 Xposition Yposition Zposition Zrotation Xrotation Yrotation
          JOINT SpineFinal_5_JNT
          {
            OFFSET -17.3574 8.01768 -1.82773e-005
            CHANNELS 6 Xposition Yposition Zposition Zrotation Xrotation Yrotation
            JOINT SpineFinal_6_JNT
            {
              OFFSET -19.144 8.35871 0
              CHANNELS 6 Xposition Yposition Zposition Zrotation Xrotation Yrotation
              JOINT SpineFinal_7_JNT
              {
                OFFSET -16.3943 7.24542 0
                CHANNELS 6 Xposition Yposition Zposition Zrotation Xrotation Yrotation
                JOINT SpineFinal_8_JNT
                {
                  OFFSET -19.3877 2.40349 0
                  CHANNELS 6 Xposition Yposition Zposition Zrotation Xrotation Yrotation
                  JOINT head_JNT
                  {
                    OFFSET -13.796 -11.6756 0
                    CHANNELS 6 Xposition Yposition Zposition Zrotation Xrotation Yrotation
                    JOINT l_hornRoot_JNT
                    {
                      OFFSET -15.825 14.8229 15.3879
                      CHANNELS 6 Xposition Yposition Zposition Zrotation Xrotation Yrotation
                      JOINT l_hornMid_JNT
                      {
                        OFFSET 6.55118 0 0
                        CHANNELS 6 Xposition Yposition Zposition Zrotation Xrotation Yrotation
                        JOINT l_hornEnd_JNT
                        {
                          OFFSET 6.73503 0 0
                          CHANNELS 6 Xposition Yposition Zposition Zrotation Xrotation Yrotation
                          End Site
                          {
                            OFFSET 0 0 0
                          }
                        }
                      }
                    }
                    JOINT headJend_JNT
                    {
                      OFFSET 1.34858 -27.5886 0
                      CHANNELS 6 Xposition Yposition Zposition Zrotation Xrotation Yrotation
                      End Site
                      {
                        OFFSET 0 0 0
                      }
                    }
                    JOINT r_hornRoot_JNT
                    {
                      OFFSET -15.825 14.8229 -15.3879
                      CHANNELS 6 Xposition Yposition Zposition Zrotation Xrotation Yrotation
                      JOINT r_hornMid_JNT
                      {
                        OFFSET -2.40814 5.46468 -2.69372
                        CHANNELS 6 Xposition Yposition Zposition Zrotation Xrotation Yrotation
                        JOINT r_hornEnd_JNT
                        {
                          OFFSET -2.40922 6.0083 -1.85921
                          CHANNELS 6 Xposition Yposition Zposition Zrotation Xrotation Yrotation
                          End Site
                          {
                            OFFSET 0 0 0
                          }
                        }
                      }
                    }
                    JOINT m_upLip_JNT
                    {
                      OFFSET 4.72477 -9.87974 0
                      CHANNELS 6 Xposition Yposition Zposition Zrotation Xrotation Yrotation
                      JOINT l_lipUpRoot_JNT
                      {
                        OFFSET 2.68891 -0.690234 4.02874
                        CHANNELS 6 Xposition Yposition Zposition Zrotation Xrotation Yrotation
                        JOINT l_lipUpEnd_JNT
                        {
                          OFFSET 0 0 -14.9226
                          CHANNELS 6 Xposition Yposition Zposition Zrotation Xrotation Yrotation
                          End Site
                          {
                            OFFSET 0 0 0
                          }
                        }
                      }
                      JOINT m_upLipRoot_JNT
                      {
                        OFFSET 0 0 3.94939
                        CHANNELS 6 Xposition Yposition Zposition Zrotation Xrotation Yrotation
                        JOINT m_upLipEnd_JNT
                        {
                          OFFSET 0 0 15.0019
                          CHANNELS 6 Xposition Yposition Zposition Zrotation Xrotation Yrotation
                          End Site
                          {
                            OFFSET 0 0 0
                          }
                        }
                      }
                      JOINT r_lipUpRoot_JNT
                      {
                        OFFSET -2.689 -0.690236 4.02875
                        CHANNELS 6 Xposition Yposition Zposition Zrotation Xrotation Yrotation
                        JOINT r_lipUpEnd_JNT
                        {
                          OFFSET 9.35075e-005 -0.000392738 14.9226
                          CHANNELS 6 Xposition Yposition Zposition Zrotation Xrotation Yrotation
                          End Site
                          {
                            OFFSET 0 0 0
                          }
                        }
                      }
                    }
                    JOINT m_DnLip_JNT
                    {
                      OFFSET 6.0207 -9.81639 0
                      CHANNELS 6 Xposition Yposition Zposition Zrotation Xrotation Yrotation
                      JOINT l_lipDn_JNT
                      {
                        OFFSET 2.71301 -0.162748 3.99146
                        CHANNELS 6 Xposition Yposition Zposition Zrotation Xrotation Yrotation
                        JOINT l_lipEnd_JNT
                        {
                          OFFSET 0 0 -14.9599
                          CHANNELS 6 Xposition Yposition Zposition Zrotation Xrotation Yrotation
                          End Site
                          {
                            OFFSET 0 0 0
                          }
                        }
                      }
                      JOINT m_dnLip_JNT
                      {
                        OFFSET 0 -0.0431035 3.99141
                        CHANNELS 6 Xposition Yposition Zposition Zrotation Xrotation Yrotation
                        JOINT m_dnLipEnd_JNT
                        {
                          OFFSET 0 0 14.9599
                          CHANNELS 6 Xposition Yposition Zposition Zrotation Xrotation Yrotation
                          End Site
                          {
                            OFFSET 0 0 0
                          }
                        }
                      }
                      JOINT r_lipDn_JNT
                      {
                        OFFSET -2.71301 -0.162761 3.99141
                        CHANNELS 6 Xposition Yposition Zposition Zrotation Xrotation Yrotation
                        JOINT r_lipDnEnd_JNT
                        {
                          OFFSET 0 0 14.9599
                          CHANNELS 6 Xposition Yposition Zposition Zrotation Xrotation Yrotation
                          End Site
                          {
                            OFFSET 0 0 0
                          }
                        }
                      }
                    }
                    JOINT l_lid_JNT
                    {
                      OFFSET -7.85698 -6.72885 9.63956
                      CHANNELS 6 Xposition Yposition Zposition Zrotation Xrotation Yrotation
                      End Site
                      {
                        OFFSET 0 0 0
                      }
                    }
                    JOINT r_lid_JNT
                    {
                      OFFSET -7.85684 -6.72882 -9.63956
                      CHANNELS 6 Xposition Yposition Zposition Zrotation Xrotation Yrotation
                      End Site
                      {
                        OFFSET 0 0 0
                      }
                    }
                  }
                }
              }
            }
            JOINT l_FwClavicleRoot_JNT
            {
              OFFSET -0.15532 -4.55898 6.72563
              CHANNELS 6 Xposition Yposition Zposition Zrotation Xrotation Yrotation
              JOINT l_FwLegBlendRoot_JNT
              {
                OFFSET 21.051 0 0
                CHANNELS 6 Xposition Yposition Zposition Zrotation Xrotation Yrotation
                JOINT l_FwLegBlendMiddle_JNT
                {
                  OFFSET 33.1145 0 0
                  CHANNELS 6 Xposition Yposition Zposition Zrotation Xrotation Yrotation
                  JOINT l_FwLegBlendTip_JNT
                  {
                    OFFSET 29.9221 0 0
                    CHANNELS 6 Xposition Yposition Zposition Zrotation Xrotation Yrotation
                    JOINT l_FwLegBlendEnd_JNT
                    {
                      OFFSET 9.62649 0 0
                      CHANNELS 6 Xposition Yposition Zposition Zrotation Xrotation Yrotation
                      End Site
                      {
                        OFFSET 0 0 0
                      }
                    }
                  }
                }
              }
            }
            JOINT r_FwClavicleRoot_JNT
            {
              OFFSET -0.15532 -4.55898 -6.72563
              CHANNELS 6 Xposition Yposition Zposition Zrotation Xrotation Yrotation
              JOINT r_FwLegBlendRoot_JNT
              {
                OFFSET 1.1653 -12.7157 -16.7361
                CHANNELS 6 Xposition Yposition Zposition Zrotation Xrotation Yrotation
                JOINT r_FwLegBlendMiddle_JNT
                {
                  OFFSET 16.2308 -5.97551 28.2387
                  CHANNELS 6 Xposition Yposition Zposition Zrotation Xrotation Yrotation
                  JOINT r_FwLegBlendTip_JNT
                  {
                    OFFSET 26.7017 -9.19239 -9.89204
                    CHANNELS 6 Xposition Yposition Zposition Zrotation Xrotation Yrotation
                    JOINT r_FwLegBlendEnd_JNT
                    {
                      OFFSET 4.44874 -7.74942 3.58114
                      CHANNELS 6 Xposition Yposition Zposition Zrotation Xrotation Yrotation
                      End Site
                      {
                        OFFSET 0 0 0
                      }
                    }
                  }
                }
              }
            }
          }
        }
      }
    }
    JOINT r_legIKClavicle_Root_JNT
    {
      OFFSET -0.323145 -1.55994 -9.59625
      CHANNELS 6 Xposition Yposition Zposition Zrotation Xrotation Yrotation
      JOINT r_legBlendRoot_JNT
      {
        OFFSET 13.2848 -5.74129 -7.13912
        CHANNELS 6 Xposition Yposition Zposition Zrotation Xrotation Yrotation
        JOINT r_legBlendMiddle_JNT
        {
          OFFSET 14.815 16.9375 15.0957
          CHANNELS 6 Xposition Yposition Zposition Zrotation Xrotation Yrotation
          JOINT r_legBlendEnd_JNT
          {
            OFFSET 23.6904 -6.58016 -3.54465
            CHANNELS 6 Xposition Yposition Zposition Zrotation Xrotation Yrotation
            JOINT r_legBlendTip_JNT
            {
              OFFSET 1.47758 -6.16068 -2.41079
              CHANNELS 6 Xposition Yposition Zposition Zrotation Xrotation Yrotation
              End Site
              {
                OFFSET 0 0 0
              }
            }
          }
        }
      }
    }
    JOINT tailRoot_JNT
    {
      OFFSET 2.82533 14.5514 0
      CHANNELS 6 Xposition Yposition Zposition Zrotation Xrotation Yrotation
      JOINT tailMid_JNT
      {
        OFFSET 7.87756 0 0
        CHANNELS 6 Xposition Yposition Zposition Zrotation Xrotation Yrotation
        JOINT tailEnd_JNT
        {
          OFFSET 6.52588 0 0
          CHANNELS 6 Xposition Yposition Zposition Zrotation Xrotation Yrotation
          End Site
          {
            OFFSET 0 0 0
          }
        }
      }
    }
    JOINT l_shoulderBkRoot_JNT
    {
      OFFSET -9.30511 7.998 11.2048
      CHANNELS 6 Xposition Yposition Zposition Zrotation Xrotation Yrotation
      JOINT l_shoulderBkMid_JNT
      {
        OFFSET 0 0 0
        CHANNELS 6 Xposition Yposition Zposition Zrotation Xrotation Yrotation
        End Site
        {
          OFFSET 0 0 0
        }
      }
    }
    JOINT r_shoulderBkRoot_JNT
    {
      OFFSET -9.30514 7.99801 -11.2048
      CHANNELS 6 Xposition Yposition Zposition Zrotation Xrotation Yrotation
      JOINT r_shoulderBkMid_JNT
      {
        OFFSET 0 0 0
        CHANNELS 6 Xposition Yposition Zposition Zrotation Xrotation Yrotation
        End Site
        {
          OFFSET 0 0 0
        }
      }
    }
  }
}
MOTION
Frames:	3
Frame Time:	0.0416667
0 0 0 0 0 -0 -0.0152381 59.8991 -42.995 -0.556366 11.3997 90.0313 -5.13341 0.937862 9.59625 -67.5878 61.2999 -67.9538 16.1374 -1.14543e-006 1.55883e-006 -26.3295 10.9041 101.858 27.0969 -3.55271e-015 -4.26326e-014 1.39419e-014 -1.12972e-015 -99.2652 24.8414 1.42109e-014 3.55271e-015 -0.150316 -0.160294 40.1416 6.77858 -7.10543e-015 -1.42109e-014 4.7394e-022 7.58303e-022 -7.95139e-016 -19.6271 -0.00602012 -0.0559287 -0.0182934 -1.02114 -2.40244 -19.457 1.49017 -0.6413 -1.37882 0.0878004 -1.31017 -18.1947 5.18381 0.677855 -17.7147 -0.465049 3.23598 -17.3257 8.05385 0.0509325 -16.9262 -0.504159 0.354097 -19.144 8.35871 -1.59872e-014 -16.6153 -1.41277e-015 -3.16872 -16.3943 7.24542 2.62013e-014 -23.8429 -0.0765665 -1.35174e-014 -19.3877 2.40349 -4.04121e-014 3.26212 6.75868e-015 2.67553 -13.796 -11.6756 2.75335e-014 -12.9302 0 -0 -15.825 14.8229 15.3879 90.9374 7.37471 -23.3328 6.55118 1.7053e-013 -3.55271e-015 -7.71366e-009 -7.59931 2.05853 6.73503 2.84217e-014 -5.32907e-014 4.41391e-032 7.95139e-016 -3.18055e-015 1.34858 -27.5886 -1.33227e-014 92.7985 1.31695e-014 -1.64991e-014 -15.825 14.8229 -15.3879 -14.8222 2.85467 -6.13959 -2.40814 5.46468 -2.69372 -7.71367e-009 -7.59931 2.05853 -2.40922 6.0083 -1.85921 9.93923e-017 0 1.28822e-015 4.72477 -9.87974 -4.44089e-016 92.7985 3.50417e-015 -90 2.68891 -0.690234 4.02874 -180 7.01671e-015 180 2.22045e-016 2.84217e-014 -14.9226 -9.93923e-017 3.18055e-015 1.98785e-016 0 0 3.94939 4.96962e-017 6.36111e-015 1.98785e-016 8.88178e-016 0 15.0019 9.93923e-017 3.18055e-015 -0 -2.689 -0.690236 4.02875 4.96962e-017 6.36111e-015 1.98785e-016 9.35075e-005 -0.000392738 14.9226 9.93923e-017 3.18055e-015 -0 6.0207 -9.81639 1.77636e-015 92.7985 3.50417e-015 -90 2.71301 -0.162748 3.99146 -180 7.01671e-015 180 -2.22045e-016 0 -14.9599 -9.93923e-017 3.18055e-015 1.98785e-016 -1.33227e-015 -0.0431035 3.99141 4.96962e-017 6.36111e-015 1.98785e-016 -4.44089e-016 0 14.9599 9.93923e-017 3.18055e-015 -0 -2.71301 -0.162761 3.99141 4.96962e-017 6.36111e-015 1.98785e-016 -8.88178e-016 -2.84217e-014 14.9599 9.93923e-017 3.18055e-015 -0 -7.85698 -6.72885 9.63956 34.106 19.9417 85.9622 -7.85684 -6.72882 -9.63956 -145.894 19.9417 85.9622 -0.550066 -4.5028 6.72564 35.5238 26.2605 -112.654 21.051 4.74516e-005 6.12741e-005 40.4235 -28.1381 111.384 33.1145 8.3753e-007 -2.8019e-007 125.725 7.01671e-015 180 29.9221 6.12843e-014 -3.55271e-015 65.8243 -2.22784 0.399504 9.62649 1.95399e-014 7.10543e-015 29.859 -1.7467e-015 90 -2.77757 -4.58347 -6.72564 -49.1387 9.37248 -17.9831 1.16534 -12.7157 -16.7361 57.8404 -70.2249 144.031 16.2308 -5.97551 28.2387 140.985 2.75657 171.96 26.7017 -9.19239 -9.89204 32.8434 31.3982 24.7647 4.44874 -7.74942 3.58114 29.859 -1.7467e-015 90 -2.94474 -0.753318 -9.59625 -83.2143 -9.24999 4.74057 13.2848 -5.74129 -7.13912 -2.74815 9.42869 40.556 14.815 16.9375 15.0957 -10.6909 10.7041 -53.0431 23.6904 -6.58016 -3.54465 7.16019 0.992702 -49.8498 1.47758 -6.16068 -2.41079 3.97569e-016 0 5.1684e-015 2.82533 14.5514 3.9968e-015 4.99157 -2.15868e-016 16.2345 7.87756 -4.26326e-014 -1.06581e-014 19.1217 0 0.23376 6.52588 1.42109e-014 1.42109e-014 6.38978e-015 0 -5.42932 -9.30511 7.998 11.2048 -6.8505 -4.18474e-016 -90 -1.77636e-015 4.11816 -7.10543e-015 1.92573e-016 1.59028e-015 1.2424e-017 -9.30514 7.99801 -11.2048 173.149 4.18474e-016 -90 -1.77636e-015 -2.05037 0 6.67792e-017 1.59028e-015 6.21202e-018 
0 0 0 0 0 -0 -0.0151209 59.9975 -42.9874 -0.556366 11.3997 90.0313 -5.42211 1.27819 9.59625 -67.5878 61.2999 -67.9538 16.1374 -1.17626e-006 1.51518e-006 -26.3295 10.9041 101.858 27.0969 1.42109e-014 -4.9738e-014 1.39419e-014 -1.12972e-015 -99.2652 24.8414 0 3.55271e-015 -0.150316 -0.160294 40.1416 6.77858 -1.06581e-014 -1.42109e-014 4.7394e-022 7.58303e-022 -7.95139e-016 -19.6354 -0.0748702 0.033741 0.184416 -1.06172 -2.04118 -19.4588 1.49342 -0.657284 -1.37882 0.0878004 -1.31017 -18.1774 5.13029 0.674635 -17.7147 -0.465049 3.23598 -17.2625 8.12466 0.0514542 -16.9262 -0.504159 0.354097 -19.144 8.35871 -1.66533e-014 -16.6153 -1.39149e-015 -3.16872 -16.3943 7.24542 2.70894e-014 -23.8429 -0.0765665 -1.32192e-014 -19.3877 2.40349 -4.17444e-014 3.26212 7.15625e-015 2.67553 -13.796 -11.6756 2.84217e-014 -12.9302 0 2.48481e-017 -15.825 14.8229 15.3879 90.9374 7.37471 -23.3328 6.55118 1.13687e-013 7.10543e-015 -7.71367e-009 -7.59931 2.05853 6.73503 2.84217e-014 -4.61853e-014 2.64834e-031 2.38542e-015 -6.36111e-015 1.34858 -27.5886 -1.33227e-014 92.7985 1.31446e-014 -1.64991e-014 -15.825 14.8229 -15.3879 -14.8222 2.85467 -6.13959 -2.40814 5.46468 -2.69372 -7.71367e-009 -7.59931 2.05853 -2.40922 6.0083 -1.85921 2.48481e-017 1.59028e-015 7.84268e-016 4.72477 -9.87974 8.88178e-016 92.7985 3.50417e-015 -90 2.68891 -0.690234 4.02874 180 7.01671e-015 180 -2.22045e-016 -2.84217e-014 -14.9226 2.48481e-017 -3.18055e-015 -9.93923e-017 8.88178e-016 0 3.94939 -4.96962e-017 0 9.93923e-017 -4.44089e-016 -2.84217e-014 15.0019 -4.96962e-017 -3.18055e-015 -0 -2.689 -0.690236 4.02875 -4.96962e-017 0 9.93923e-017 9.35075e-005 -0.000392738 14.9226 -4.96962e-017 -3.18055e-015 -0 6.0207 -9.81639 0 92.7985 3.50417e-015 -90 2.71301 -0.162748 3.99146 180 7.01671e-015 180 0 0 -14.9599 2.48481e-017 -3.18055e-015 -9.93923e-017 4.44089e-016 -0.0431035 3.99141 -4.96962e-017 0 9.93923e-017 0 0 14.9599 -4.96962e-017 -3.18055e-015 -0 -2.71301 -0.162761 3.99141 -4.96962e-017 0 9.93923e-017 0 0 14.9599 -4.96962e-017 -3.18055e-015 -0 -7.85698 -6.72885 9.63956 34.106 19.9417 85.9622 -7.85684 -6.72882 -9.63956 -145.894 19.9417 85.9622 -0.00560794 -4.42782 6.72564 35.5238 26.2605 -112.654 21.051 5.03256e-005 5.88174e-005 40.4235 -28.1381 111.384 33.1145 8.3753e-007 -2.8019e-007 125.725 7.01671e-015 180 29.9221 7.19425e-014 -7.10543e-015 65.8243 -2.22784 0.399504 9.62649 1.95399e-014 7.10543e-015 29.859 -1.7467e-015 90 -2.76966 -4.58382 -6.72564 -49.1387 9.37248 -17.9831 1.16534 -12.7157 -16.7361 57.8404 -70.2249 144.031 16.2308 -5.97551 28.2387 140.985 2.75657 171.96 26.7017 -9.19239 -9.89204 32.8434 31.3982 24.7647 4.44874 -7.74942 3.58114 29.859 -1.7467e-015 90 -2.80497 -0.823836 -9.59625 -83.2143 -9.24999 4.74057 13.2848 -5.74129 -7.13912 -2.74815 9.42869 40.556 14.815 16.9375 15.0957 -10.6909 10.7041 -53.0431 23.6904 -6.58016 -3.54465 7.16019 0.992702 -49.8498 1.47758 -6.16068 -2.41079 3.97569e-016 0 5.1684e-015 2.82533 14.5514 1.11022e-014 4.99157 -2.15868e-016 16.2345 7.87756 -2.84217e-014 0 19.1217 0 0.23376 6.52588 1.42109e-014 -3.55271e-015 3.19078e-015 0 -4.58839 -9.30511 7.998 11.2048 -6.8505 -4.18474e-016 -90 1.77636e-015 4.45004 0 1.92573e-016 1.59028e-015 1.2424e-017 -9.30514 7.99801 -11.2048 173.149 4.18474e-016 -90 0 -1.93397 -7.10543e-015 6.67792e-017 1.59028e-015 6.21202e-018 
0 0 0 0 0 -0 -0.014733 60.2094 -42.9709 -0.587837 11.4146 89.7759 -5.73339 1.6956 9.59625 -70.9066 61.2999 -67.9538 16.1374 -1.20158e-006 1.46133e-006 -26.0607 10.8854 102.263 27.0969 0 -2.84217e-014 7.06747e-017 9.93385e-016 -98.1389 24.8414 0 2.13163e-014 -0.223275 -0.248624 39.0544 6.77858 -1.06581e-014 -7.10543e-015 -2.72515e-022 -4.7394e-022 -0 -19.65 -0.225295 0.257799 0.631768 -1.09137 -1.12571 -19.4579 1.54311 -0.692465 -1.19311 0.0705674 -1.38912 -18.1592 5.06532 0.661366 -17.7327 -0.43357 3.22742 -17.185 8.21111 0.0525039 -17.3074 -0.49755 0.354807 -19.144 8.35871 -1.77636e-014 -16.6153 -1.39149e-015 -3.12683 -16.3943 7.24542 2.66454e-014 -23.8429 -0.0765665 -1.22253e-014 -19.3877 2.40349 -4.30767e-014 3.26212 6.95746e-015 2.57736 -13.796 -11.6756 2.84217e-014 -12.9302 -2.48481e-017 -1.2424e-017 -15.825 14.8229 15.3879 90.9374 7.37471 -23.3328 6.55118 1.13687e-013 1.77636e-014 -7.71367e-009 -7.59931 2.05853 6.73503 5.68434e-014 -4.9738e-014 -1.59028e-015 0 3.18055e-015 1.34858 -27.5886 -1.28786e-014 92.7985 1.31695e-014 -1.64991e-014 -15.825 14.8229 -15.3879 -14.8222 2.85467 -6.13959 -2.40814 5.46468 -2.69372 -7.71367e-009 -7.59931 2.05853 -2.40922 6.0083 -1.85921 4.96962e-017 7.95139e-016 -7.64079e-016 4.72477 -9.87974 -8.88178e-016 92.7985 3.50417e-015 -90 2.68891 -0.690234 4.02874 -180 7.01671e-015 -180 -5.55112e-017 0 -14.9226 1.2424e-017 3.18055e-015 -0 -4.44089e-016 0 3.94939 1.2424e-017 3.18055e-015 -0 0 0 15.0019 -0 0 2.48481e-017 -2.689 -0.690236 4.02875 1.2424e-017 3.18055e-015 -0 9.35075e-005 -0.000392738 14.9226 -0 0 2.48481e-017 6.0207 -9.81639 0 92.7985 3.50417e-015 -90 2.71301 -0.162748 3.99146 -180 7.01671e-015 -180 0 0 -14.9599 1.2424e-017 3.18055e-015 -0 1.33227e-015 -0.0431035 3.99141 1.2424e-017 3.18055e-015 -0 -4.44089e-016 0 14.9599 -0 0 2.48481e-017 -2.71301 -0.162761 3.99141 1.2424e-017 3.18055e-015 -0 0 2.84217e-014 14.9599 -0 0 2.48481e-017 -7.85698 -6.72885 9.63956 34.106 19.9417 85.9622 -7.85684 -6.72882 -9.63956 -145.894 19.9417 85.9622 1.24816 -4.16963 6.72564 37.8034 26.2605 -112.654 21.051 5.63032e-005 5.24127e-005 40.8516 -29.1033 111.579 33.1145 8.3753e-007 -2.8019e-007 125.512 7.01671e-015 180 29.9221 5.55112e-014 3.55271e-015 66.7918 -2.39398 0.391704 9.62649 2.30926e-014 7.10543e-015 29.859 -1.7467e-015 90 -2.7153 -4.58611 -6.72564 -49.1058 9.37248 -17.9831 1.16534 -12.7157 -16.7361 58.6046 -69.8643 143.558 16.2308 -5.97551 28.2387 141.1 3.46942 169.857 26.7017 -9.19239 -9.89204 32.4991 32.1179 25.4248 4.44874 -7.74942 3.58114 29.859 -1.7467e-015 90 -2.44186 -0.990877 -9.59625 -82.0502 -9.24999 4.74057 13.2848 -5.74129 -7.13912 -3.52671 9.23047 40.6153 14.815 16.9375 15.0957 -9.7584 9.79867 -53.209 23.6904 -6.58016 -3.54465 5.46617 0.717506 -49.7686 1.47758 -6.16068 -2.41079 -4.41391e-032 -7.95139e-016 -3.18055e-015 2.82533 14.5514 9.54792e-015 4.99157 2.11209e-016 17.5439 7.87756 -1.42109e-014 0 19.1217 0 0.589077 6.52588 7.10543e-015 0 -6.43443e-015 -1.59028e-015 -2.43344 -9.30511 7.998 11.2048 -6.8505 -4.18474e-016 -90 0 4.83728 0 1.89467e-016 0 -4.96962e-017 -9.30514 7.99801 -11.2048 173.149 4.18474e-016 -90 -1.77636e-015 -1.63675 0 -8.69683e-017 0 7.45443e-017 
